<mxfile host="app.diagrams.net" modified="2023-04-13T09:30:53.071Z" agent="Mozilla/5.0 (Windows NT 10.0; Win64; x64) AppleWebKit/537.36 (KHTML, like Gecko) Chrome/112.0.0.0 Safari/537.36" etag="rKYOSzaN6HWyGVznR5WO" version="21.1.6" type="github">
  <diagram id="C5RBs43oDa-KdzZeNtuy" name="Page-1">
    <mxGraphModel dx="461" dy="546" grid="1" gridSize="10" guides="1" tooltips="1" connect="1" arrows="1" fold="1" page="1" pageScale="1" pageWidth="827" pageHeight="1169" math="0" shadow="0">
      <root>
        <mxCell id="WIyWlLk6GJQsqaUBKTNV-0" />
        <mxCell id="WIyWlLk6GJQsqaUBKTNV-1" parent="WIyWlLk6GJQsqaUBKTNV-0" />
        <mxCell id="HVfWvHNxlyUM4U1txKe5-14" value="" style="ellipse;html=1;shape=startState;fillColor=#000000;strokeColor=#ff0000;" vertex="1" parent="WIyWlLk6GJQsqaUBKTNV-1">
          <mxGeometry x="130" y="120" width="30" height="30" as="geometry" />
        </mxCell>
        <mxCell id="HVfWvHNxlyUM4U1txKe5-15" value="" style="edgeStyle=orthogonalEdgeStyle;html=1;verticalAlign=bottom;endArrow=open;endSize=8;strokeColor=#ff0000;rounded=0;" edge="1" source="HVfWvHNxlyUM4U1txKe5-14" parent="WIyWlLk6GJQsqaUBKTNV-1">
          <mxGeometry relative="1" as="geometry">
            <mxPoint x="145" y="210" as="targetPoint" />
          </mxGeometry>
        </mxCell>
        <mxCell id="HVfWvHNxlyUM4U1txKe5-16" value="" style="shape=umlActor;verticalLabelPosition=bottom;verticalAlign=top;html=1;outlineConnect=0;" vertex="1" parent="WIyWlLk6GJQsqaUBKTNV-1">
          <mxGeometry x="130" y="60" width="30" height="60" as="geometry" />
        </mxCell>
        <mxCell id="HVfWvHNxlyUM4U1txKe5-17" value="M端nzeingabe" style="rounded=1;whiteSpace=wrap;html=1;arcSize=40;fontColor=#000000;fillColor=#ffffc0;strokeColor=#ff0000;" vertex="1" parent="WIyWlLk6GJQsqaUBKTNV-1">
          <mxGeometry x="85" y="210" width="120" height="40" as="geometry" />
        </mxCell>
        <mxCell id="HVfWvHNxlyUM4U1txKe5-18" value="" style="edgeStyle=orthogonalEdgeStyle;html=1;verticalAlign=bottom;endArrow=open;endSize=8;strokeColor=#ff0000;rounded=0;" edge="1" source="HVfWvHNxlyUM4U1txKe5-17" parent="WIyWlLk6GJQsqaUBKTNV-1">
          <mxGeometry relative="1" as="geometry">
            <mxPoint x="145" y="310" as="targetPoint" />
          </mxGeometry>
        </mxCell>
        <mxCell id="HVfWvHNxlyUM4U1txKe5-19" value="Ist G端ltig" style="rhombus;whiteSpace=wrap;html=1;fontColor=#000000;fillColor=#ffffc0;strokeColor=#ff0000;" vertex="1" parent="WIyWlLk6GJQsqaUBKTNV-1">
          <mxGeometry x="105" y="310" width="80" height="40" as="geometry" />
        </mxCell>
        <mxCell id="HVfWvHNxlyUM4U1txKe5-20" value="no" style="edgeStyle=orthogonalEdgeStyle;html=1;align=left;verticalAlign=bottom;endArrow=open;endSize=8;strokeColor=#ff0000;rounded=0;" edge="1" source="HVfWvHNxlyUM4U1txKe5-19" parent="WIyWlLk6GJQsqaUBKTNV-1">
          <mxGeometry x="-1" relative="1" as="geometry">
            <mxPoint x="280" y="330" as="targetPoint" />
          </mxGeometry>
        </mxCell>
        <mxCell id="HVfWvHNxlyUM4U1txKe5-21" value="yes" style="edgeStyle=orthogonalEdgeStyle;html=1;align=left;verticalAlign=top;endArrow=open;endSize=8;strokeColor=#ff0000;rounded=0;" edge="1" source="HVfWvHNxlyUM4U1txKe5-19" parent="WIyWlLk6GJQsqaUBKTNV-1">
          <mxGeometry x="-1" relative="1" as="geometry">
            <mxPoint x="145" y="420" as="targetPoint" />
            <Array as="points">
              <mxPoint x="145" y="410" />
            </Array>
          </mxGeometry>
        </mxCell>
        <mxCell id="HVfWvHNxlyUM4U1txKe5-22" value="Geldausgabe" style="rounded=1;whiteSpace=wrap;html=1;arcSize=40;fontColor=#000000;fillColor=#ffffc0;strokeColor=#ff0000;" vertex="1" parent="WIyWlLk6GJQsqaUBKTNV-1">
          <mxGeometry x="280" y="310" width="120" height="40" as="geometry" />
        </mxCell>
        <mxCell id="HVfWvHNxlyUM4U1txKe5-23" value="" style="edgeStyle=orthogonalEdgeStyle;html=1;verticalAlign=bottom;endArrow=open;endSize=8;strokeColor=#ff0000;rounded=0;exitX=0.5;exitY=0;exitDx=0;exitDy=0;entryX=1;entryY=0.5;entryDx=0;entryDy=0;" edge="1" source="HVfWvHNxlyUM4U1txKe5-22" parent="WIyWlLk6GJQsqaUBKTNV-1" target="HVfWvHNxlyUM4U1txKe5-17">
          <mxGeometry relative="1" as="geometry">
            <mxPoint x="470" y="330" as="targetPoint" />
          </mxGeometry>
        </mxCell>
        <mxCell id="HVfWvHNxlyUM4U1txKe5-25" value="Tastenwahl" style="rounded=1;whiteSpace=wrap;html=1;arcSize=40;fontColor=#000000;fillColor=#ffffc0;strokeColor=#ff0000;" vertex="1" parent="WIyWlLk6GJQsqaUBKTNV-1">
          <mxGeometry x="85" y="420" width="120" height="40" as="geometry" />
        </mxCell>
        <mxCell id="HVfWvHNxlyUM4U1txKe5-26" value="" style="edgeStyle=orthogonalEdgeStyle;html=1;verticalAlign=bottom;endArrow=open;endSize=8;strokeColor=#ff0000;rounded=0;" edge="1" source="HVfWvHNxlyUM4U1txKe5-25" parent="WIyWlLk6GJQsqaUBKTNV-1">
          <mxGeometry relative="1" as="geometry">
            <mxPoint x="145" y="520" as="targetPoint" />
          </mxGeometry>
        </mxCell>
        <mxCell id="HVfWvHNxlyUM4U1txKe5-27" value="Ist G端ltig" style="rhombus;whiteSpace=wrap;html=1;fontColor=#000000;fillColor=#ffffc0;strokeColor=#ff0000;" vertex="1" parent="WIyWlLk6GJQsqaUBKTNV-1">
          <mxGeometry x="105" y="520" width="80" height="40" as="geometry" />
        </mxCell>
        <mxCell id="HVfWvHNxlyUM4U1txKe5-28" value="no" style="edgeStyle=orthogonalEdgeStyle;html=1;align=left;verticalAlign=bottom;endArrow=open;endSize=8;strokeColor=#ff0000;rounded=0;entryX=0;entryY=0.5;entryDx=0;entryDy=0;" edge="1" source="HVfWvHNxlyUM4U1txKe5-27" parent="WIyWlLk6GJQsqaUBKTNV-1" target="HVfWvHNxlyUM4U1txKe5-30">
          <mxGeometry x="-1" relative="1" as="geometry">
            <mxPoint x="285" y="540" as="targetPoint" />
          </mxGeometry>
        </mxCell>
        <mxCell id="HVfWvHNxlyUM4U1txKe5-29" value="yes" style="edgeStyle=orthogonalEdgeStyle;html=1;align=left;verticalAlign=top;endArrow=open;endSize=8;strokeColor=#ff0000;rounded=0;" edge="1" source="HVfWvHNxlyUM4U1txKe5-27" parent="WIyWlLk6GJQsqaUBKTNV-1">
          <mxGeometry x="-1" relative="1" as="geometry">
            <mxPoint x="145" y="620" as="targetPoint" />
          </mxGeometry>
        </mxCell>
        <mxCell id="HVfWvHNxlyUM4U1txKe5-30" value="Fehlermeldung zeigen" style="rounded=1;whiteSpace=wrap;html=1;arcSize=40;fontColor=#000000;fillColor=#ffffc0;strokeColor=#ff0000;" vertex="1" parent="WIyWlLk6GJQsqaUBKTNV-1">
          <mxGeometry x="280" y="520" width="120" height="40" as="geometry" />
        </mxCell>
        <mxCell id="HVfWvHNxlyUM4U1txKe5-31" value="" style="edgeStyle=orthogonalEdgeStyle;html=1;verticalAlign=bottom;endArrow=open;endSize=8;strokeColor=#ff0000;rounded=0;exitX=0.5;exitY=0;exitDx=0;exitDy=0;entryX=1;entryY=0.5;entryDx=0;entryDy=0;" edge="1" source="HVfWvHNxlyUM4U1txKe5-30" parent="WIyWlLk6GJQsqaUBKTNV-1" target="HVfWvHNxlyUM4U1txKe5-25">
          <mxGeometry relative="1" as="geometry">
            <mxPoint x="340" y="620" as="targetPoint" />
            <Array as="points" />
          </mxGeometry>
        </mxCell>
        <mxCell id="HVfWvHNxlyUM4U1txKe5-34" value="Gen端gend Geld" style="rhombus;whiteSpace=wrap;html=1;fontColor=#000000;fillColor=#ffffc0;strokeColor=#ff0000;" vertex="1" parent="WIyWlLk6GJQsqaUBKTNV-1">
          <mxGeometry x="105" y="620" width="80" height="80" as="geometry" />
        </mxCell>
        <mxCell id="HVfWvHNxlyUM4U1txKe5-35" value="no" style="edgeStyle=orthogonalEdgeStyle;html=1;align=left;verticalAlign=bottom;endArrow=open;endSize=8;strokeColor=#ff0000;rounded=0;" edge="1" source="HVfWvHNxlyUM4U1txKe5-34" parent="WIyWlLk6GJQsqaUBKTNV-1">
          <mxGeometry x="-1" relative="1" as="geometry">
            <mxPoint x="280" y="660" as="targetPoint" />
          </mxGeometry>
        </mxCell>
        <mxCell id="HVfWvHNxlyUM4U1txKe5-36" value="yes" style="edgeStyle=orthogonalEdgeStyle;html=1;align=left;verticalAlign=top;endArrow=open;endSize=8;strokeColor=#ff0000;rounded=0;" edge="1" source="HVfWvHNxlyUM4U1txKe5-34" parent="WIyWlLk6GJQsqaUBKTNV-1">
          <mxGeometry x="-1" relative="1" as="geometry">
            <mxPoint x="145" y="760" as="targetPoint" />
          </mxGeometry>
        </mxCell>
        <mxCell id="HVfWvHNxlyUM4U1txKe5-39" style="edgeStyle=orthogonalEdgeStyle;rounded=0;orthogonalLoop=1;jettySize=auto;html=1;entryX=1;entryY=0.5;entryDx=0;entryDy=0;strokeColor=#FF3333;" edge="1" parent="WIyWlLk6GJQsqaUBKTNV-1" source="HVfWvHNxlyUM4U1txKe5-37" target="HVfWvHNxlyUM4U1txKe5-25">
          <mxGeometry relative="1" as="geometry">
            <mxPoint x="420.0000000000001" y="660" as="targetPoint" />
            <Array as="points">
              <mxPoint x="440" y="660" />
              <mxPoint x="440" y="440" />
            </Array>
          </mxGeometry>
        </mxCell>
        <mxCell id="HVfWvHNxlyUM4U1txKe5-37" value="Fehlermeldung zeigen" style="rounded=1;whiteSpace=wrap;html=1;arcSize=40;fontColor=#000000;fillColor=#ffffc0;strokeColor=#ff0000;" vertex="1" parent="WIyWlLk6GJQsqaUBKTNV-1">
          <mxGeometry x="280" y="640" width="120" height="40" as="geometry" />
        </mxCell>
        <mxCell id="HVfWvHNxlyUM4U1txKe5-38" value="" style="edgeStyle=orthogonalEdgeStyle;html=1;verticalAlign=bottom;endArrow=open;endSize=8;strokeColor=#ff0000;rounded=0;" edge="1" source="HVfWvHNxlyUM4U1txKe5-37" parent="WIyWlLk6GJQsqaUBKTNV-1">
          <mxGeometry relative="1" as="geometry">
            <mxPoint x="340" y="740" as="targetPoint" />
          </mxGeometry>
        </mxCell>
      </root>
    </mxGraphModel>
  </diagram>
</mxfile>
